<mxfile host="app.diagrams.net" modified="2023-01-25T06:37:42.004Z" agent="5.0 (Windows NT 10.0; Win64; x64) AppleWebKit/537.36 (KHTML, like Gecko) Chrome/109.0.0.0 Safari/537.36 Edg/109.0.1518.61" etag="AEkVIDlS0dhtnHbZV5P6" version="20.8.11" type="github">
  <diagram id="C5RBs43oDa-KdzZeNtuy" name="Page-1">
    <mxGraphModel dx="1687" dy="936" grid="1" gridSize="10" guides="1" tooltips="1" connect="1" arrows="1" fold="1" page="1" pageScale="1" pageWidth="827" pageHeight="1169" math="0" shadow="0">
      <root>
        <mxCell id="WIyWlLk6GJQsqaUBKTNV-0" />
        <mxCell id="WIyWlLk6GJQsqaUBKTNV-1" parent="WIyWlLk6GJQsqaUBKTNV-0" />
        <mxCell id="axlbu7E9fd5E_WkOh0l3-4" style="edgeStyle=orthogonalEdgeStyle;rounded=0;orthogonalLoop=1;jettySize=auto;html=1;exitX=0.5;exitY=1;exitDx=0;exitDy=0;entryX=0.5;entryY=0;entryDx=0;entryDy=0;" edge="1" parent="WIyWlLk6GJQsqaUBKTNV-1" source="axlbu7E9fd5E_WkOh0l3-1" target="axlbu7E9fd5E_WkOh0l3-3">
          <mxGeometry relative="1" as="geometry" />
        </mxCell>
        <mxCell id="axlbu7E9fd5E_WkOh0l3-1" value="START" style="ellipse;whiteSpace=wrap;html=1;" vertex="1" parent="WIyWlLk6GJQsqaUBKTNV-1">
          <mxGeometry x="320" y="80" width="120" height="80" as="geometry" />
        </mxCell>
        <mxCell id="axlbu7E9fd5E_WkOh0l3-2" value="END" style="ellipse;whiteSpace=wrap;html=1;" vertex="1" parent="WIyWlLk6GJQsqaUBKTNV-1">
          <mxGeometry x="320" y="780" width="120" height="80" as="geometry" />
        </mxCell>
        <mxCell id="axlbu7E9fd5E_WkOh0l3-8" style="edgeStyle=orthogonalEdgeStyle;rounded=0;orthogonalLoop=1;jettySize=auto;html=1;entryX=0.5;entryY=0;entryDx=0;entryDy=0;" edge="1" parent="WIyWlLk6GJQsqaUBKTNV-1" source="axlbu7E9fd5E_WkOh0l3-3" target="axlbu7E9fd5E_WkOh0l3-5">
          <mxGeometry relative="1" as="geometry" />
        </mxCell>
        <mxCell id="axlbu7E9fd5E_WkOh0l3-3" value="declare a,b,c" style="shape=hexagon;perimeter=hexagonPerimeter2;whiteSpace=wrap;html=1;fixedSize=1;" vertex="1" parent="WIyWlLk6GJQsqaUBKTNV-1">
          <mxGeometry x="235" y="190" width="290" height="50" as="geometry" />
        </mxCell>
        <mxCell id="axlbu7E9fd5E_WkOh0l3-9" style="edgeStyle=orthogonalEdgeStyle;rounded=0;orthogonalLoop=1;jettySize=auto;html=1;exitX=0.5;exitY=1;exitDx=0;exitDy=0;entryX=0.5;entryY=0;entryDx=0;entryDy=0;" edge="1" parent="WIyWlLk6GJQsqaUBKTNV-1" source="axlbu7E9fd5E_WkOh0l3-5" target="axlbu7E9fd5E_WkOh0l3-6">
          <mxGeometry relative="1" as="geometry" />
        </mxCell>
        <mxCell id="axlbu7E9fd5E_WkOh0l3-5" value="INPUT&lt;br&gt;Get&amp;nbsp; valiue of a, b, c" style="shape=parallelogram;perimeter=parallelogramPerimeter;whiteSpace=wrap;html=1;fixedSize=1;" vertex="1" parent="WIyWlLk6GJQsqaUBKTNV-1">
          <mxGeometry x="285" y="270" width="190" height="60" as="geometry" />
        </mxCell>
        <mxCell id="axlbu7E9fd5E_WkOh0l3-15" style="edgeStyle=orthogonalEdgeStyle;rounded=0;orthogonalLoop=1;jettySize=auto;html=1;exitX=1;exitY=0.5;exitDx=0;exitDy=0;" edge="1" parent="WIyWlLk6GJQsqaUBKTNV-1" source="axlbu7E9fd5E_WkOh0l3-6" target="axlbu7E9fd5E_WkOh0l3-14">
          <mxGeometry relative="1" as="geometry">
            <Array as="points">
              <mxPoint x="600" y="430" />
            </Array>
          </mxGeometry>
        </mxCell>
        <mxCell id="axlbu7E9fd5E_WkOh0l3-17" value="TRUE" style="edgeLabel;html=1;align=center;verticalAlign=middle;resizable=0;points=[];" vertex="1" connectable="0" parent="axlbu7E9fd5E_WkOh0l3-15">
          <mxGeometry x="-0.4224" y="1" relative="1" as="geometry">
            <mxPoint as="offset" />
          </mxGeometry>
        </mxCell>
        <mxCell id="axlbu7E9fd5E_WkOh0l3-16" style="edgeStyle=orthogonalEdgeStyle;rounded=0;orthogonalLoop=1;jettySize=auto;html=1;exitX=0;exitY=0.5;exitDx=0;exitDy=0;entryX=0.5;entryY=0;entryDx=0;entryDy=0;" edge="1" parent="WIyWlLk6GJQsqaUBKTNV-1" source="axlbu7E9fd5E_WkOh0l3-6" target="axlbu7E9fd5E_WkOh0l3-11">
          <mxGeometry relative="1" as="geometry">
            <mxPoint x="190" y="420" as="sourcePoint" />
            <Array as="points">
              <mxPoint x="215" y="430" />
            </Array>
          </mxGeometry>
        </mxCell>
        <mxCell id="axlbu7E9fd5E_WkOh0l3-18" value="FALSE" style="edgeLabel;html=1;align=center;verticalAlign=middle;resizable=0;points=[];" vertex="1" connectable="0" parent="axlbu7E9fd5E_WkOh0l3-16">
          <mxGeometry x="-0.4142" relative="1" as="geometry">
            <mxPoint as="offset" />
          </mxGeometry>
        </mxCell>
        <mxCell id="axlbu7E9fd5E_WkOh0l3-6" value="&amp;nbsp;a &amp;gt; b" style="rhombus;whiteSpace=wrap;html=1;" vertex="1" parent="WIyWlLk6GJQsqaUBKTNV-1">
          <mxGeometry x="330" y="380" width="100" height="100" as="geometry" />
        </mxCell>
        <mxCell id="axlbu7E9fd5E_WkOh0l3-26" style="edgeStyle=orthogonalEdgeStyle;rounded=0;orthogonalLoop=1;jettySize=auto;html=1;exitX=1;exitY=0.5;exitDx=0;exitDy=0;entryX=0.5;entryY=0;entryDx=0;entryDy=0;" edge="1" parent="WIyWlLk6GJQsqaUBKTNV-1" source="axlbu7E9fd5E_WkOh0l3-11" target="axlbu7E9fd5E_WkOh0l3-20">
          <mxGeometry relative="1" as="geometry" />
        </mxCell>
        <mxCell id="axlbu7E9fd5E_WkOh0l3-31" value="FALSE" style="edgeLabel;html=1;align=center;verticalAlign=middle;resizable=0;points=[];" vertex="1" connectable="0" parent="axlbu7E9fd5E_WkOh0l3-26">
          <mxGeometry x="-0.3517" y="-2" relative="1" as="geometry">
            <mxPoint as="offset" />
          </mxGeometry>
        </mxCell>
        <mxCell id="axlbu7E9fd5E_WkOh0l3-29" style="edgeStyle=orthogonalEdgeStyle;rounded=0;orthogonalLoop=1;jettySize=auto;html=1;exitX=0.5;exitY=1;exitDx=0;exitDy=0;entryX=0.5;entryY=0;entryDx=0;entryDy=0;" edge="1" parent="WIyWlLk6GJQsqaUBKTNV-1" source="axlbu7E9fd5E_WkOh0l3-11" target="axlbu7E9fd5E_WkOh0l3-25">
          <mxGeometry relative="1" as="geometry" />
        </mxCell>
        <mxCell id="axlbu7E9fd5E_WkOh0l3-30" value="TRUE" style="edgeLabel;html=1;align=center;verticalAlign=middle;resizable=0;points=[];" vertex="1" connectable="0" parent="axlbu7E9fd5E_WkOh0l3-29">
          <mxGeometry x="0.1285" y="1" relative="1" as="geometry">
            <mxPoint x="14" y="-16" as="offset" />
          </mxGeometry>
        </mxCell>
        <mxCell id="axlbu7E9fd5E_WkOh0l3-11" value="b &amp;gt; c" style="rhombus;whiteSpace=wrap;html=1;" vertex="1" parent="WIyWlLk6GJQsqaUBKTNV-1">
          <mxGeometry x="180" y="480" width="80" height="80" as="geometry" />
        </mxCell>
        <mxCell id="axlbu7E9fd5E_WkOh0l3-21" style="edgeStyle=orthogonalEdgeStyle;rounded=0;orthogonalLoop=1;jettySize=auto;html=1;exitX=1;exitY=0.5;exitDx=0;exitDy=0;" edge="1" parent="WIyWlLk6GJQsqaUBKTNV-1" source="axlbu7E9fd5E_WkOh0l3-14" target="axlbu7E9fd5E_WkOh0l3-19">
          <mxGeometry relative="1" as="geometry">
            <mxPoint x="600" y="590" as="sourcePoint" />
          </mxGeometry>
        </mxCell>
        <mxCell id="axlbu7E9fd5E_WkOh0l3-23" value="TRUE" style="edgeLabel;html=1;align=center;verticalAlign=middle;resizable=0;points=[];" vertex="1" connectable="0" parent="axlbu7E9fd5E_WkOh0l3-21">
          <mxGeometry x="-0.4746" y="2" relative="1" as="geometry">
            <mxPoint as="offset" />
          </mxGeometry>
        </mxCell>
        <mxCell id="axlbu7E9fd5E_WkOh0l3-22" style="edgeStyle=orthogonalEdgeStyle;rounded=0;orthogonalLoop=1;jettySize=auto;html=1;exitX=0;exitY=0.5;exitDx=0;exitDy=0;entryX=0.5;entryY=0;entryDx=0;entryDy=0;" edge="1" parent="WIyWlLk6GJQsqaUBKTNV-1" source="axlbu7E9fd5E_WkOh0l3-14" target="axlbu7E9fd5E_WkOh0l3-20">
          <mxGeometry relative="1" as="geometry">
            <Array as="points">
              <mxPoint x="420" y="560" />
            </Array>
          </mxGeometry>
        </mxCell>
        <mxCell id="axlbu7E9fd5E_WkOh0l3-28" value="FALSE" style="edgeLabel;html=1;align=center;verticalAlign=middle;resizable=0;points=[];" vertex="1" connectable="0" parent="axlbu7E9fd5E_WkOh0l3-22">
          <mxGeometry x="-0.4693" y="1" relative="1" as="geometry">
            <mxPoint x="-51" y="-1" as="offset" />
          </mxGeometry>
        </mxCell>
        <mxCell id="axlbu7E9fd5E_WkOh0l3-14" value="a &amp;gt; c" style="rhombus;whiteSpace=wrap;html=1;" vertex="1" parent="WIyWlLk6GJQsqaUBKTNV-1">
          <mxGeometry x="560" y="480" width="80" height="80" as="geometry" />
        </mxCell>
        <mxCell id="axlbu7E9fd5E_WkOh0l3-34" style="edgeStyle=orthogonalEdgeStyle;rounded=0;orthogonalLoop=1;jettySize=auto;html=1;entryX=0.5;entryY=0;entryDx=0;entryDy=0;exitX=0.5;exitY=1;exitDx=0;exitDy=0;" edge="1" parent="WIyWlLk6GJQsqaUBKTNV-1" source="axlbu7E9fd5E_WkOh0l3-19" target="axlbu7E9fd5E_WkOh0l3-2">
          <mxGeometry relative="1" as="geometry">
            <mxPoint x="660" y="750" as="sourcePoint" />
          </mxGeometry>
        </mxCell>
        <mxCell id="axlbu7E9fd5E_WkOh0l3-19" value="OUTPUT A" style="shape=parallelogram;perimeter=parallelogramPerimeter;whiteSpace=wrap;html=1;fixedSize=1;" vertex="1" parent="WIyWlLk6GJQsqaUBKTNV-1">
          <mxGeometry x="540" y="640" width="210" height="60" as="geometry" />
        </mxCell>
        <mxCell id="axlbu7E9fd5E_WkOh0l3-33" style="edgeStyle=orthogonalEdgeStyle;rounded=0;orthogonalLoop=1;jettySize=auto;html=1;exitX=0.5;exitY=1;exitDx=0;exitDy=0;" edge="1" parent="WIyWlLk6GJQsqaUBKTNV-1" source="axlbu7E9fd5E_WkOh0l3-20">
          <mxGeometry relative="1" as="geometry">
            <mxPoint x="380" y="780" as="targetPoint" />
          </mxGeometry>
        </mxCell>
        <mxCell id="axlbu7E9fd5E_WkOh0l3-20" value="OUTPUT C" style="shape=parallelogram;perimeter=parallelogramPerimeter;whiteSpace=wrap;html=1;fixedSize=1;" vertex="1" parent="WIyWlLk6GJQsqaUBKTNV-1">
          <mxGeometry x="315" y="640" width="210" height="60" as="geometry" />
        </mxCell>
        <mxCell id="axlbu7E9fd5E_WkOh0l3-32" style="edgeStyle=orthogonalEdgeStyle;rounded=0;orthogonalLoop=1;jettySize=auto;html=1;exitX=0.5;exitY=1;exitDx=0;exitDy=0;" edge="1" parent="WIyWlLk6GJQsqaUBKTNV-1" source="axlbu7E9fd5E_WkOh0l3-25" target="axlbu7E9fd5E_WkOh0l3-2">
          <mxGeometry relative="1" as="geometry" />
        </mxCell>
        <mxCell id="axlbu7E9fd5E_WkOh0l3-25" value="OUTPUT B" style="shape=parallelogram;perimeter=parallelogramPerimeter;whiteSpace=wrap;html=1;fixedSize=1;" vertex="1" parent="WIyWlLk6GJQsqaUBKTNV-1">
          <mxGeometry x="100" y="640" width="210" height="60" as="geometry" />
        </mxCell>
      </root>
    </mxGraphModel>
  </diagram>
</mxfile>
